<svg xmlns="http://www.w3.org/2000/svg" xmlns:xlink="http://www.w3.org/1999/xlink" width="500" zoomAndPan="magnify" viewBox="0 0 375 374.999991" height="500" preserveAspectRatio="xMidYMid meet" version="1.2"><defs/><g id="a07fe797d5"><path style=" stroke:none;fill-rule:evenodd;fill:#084c3d;fill-opacity:1;" d="M 48.746094 101.421875 C 46.996094 139.164062 52.058594 173.683594 63.941406 204.980469 C 68.441406 216.851562 73.929688 228.253906 80.394531 239.195312 C 81.074219 205.414062 111.480469 148.664062 151.902344 126.246094 C 77.230469 202.976562 101.171875 293.089844 186.007812 338.066406 C 282.28125 283.054688 328.035156 204.175781 323.269531 101.417969 C 244.066406 35.808594 127.949219 35.808594 48.746094 101.421875 M 193.554688 104.472656 C 192.652344 98.46875 194.285156 92.132812 198.558594 87.191406 C 148.660156 84.113281 103.84375 106.863281 80.09375 140.78125 C 77.894531 127.605469 76.894531 114.207031 76.898438 100.691406 C 141.683594 54.082031 230.339844 54.082031 295.125 100.691406 C 295.140625 132.921875 289.410156 164.476562 275.480469 193.953125 C 206.828125 339.226562 108.550781 179.023438 192.5625 130.171875 C 160.375 155.863281 172.367188 204.09375 209.8125 187.101562 C 219.351562 182.769531 228.300781 174.367188 243.496094 175.09375 C 235.058594 176.84375 227.121094 180.476562 220.28125 185.71875 C 244.527344 179.324219 247.265625 207.910156 257.242188 198.65625 C 266.558594 194.0625 282.1875 159.210938 266.714844 156.265625 C 254.886719 155.496094 238.203125 144.402344 223.25 133.597656 C 213.886719 126.828125 196.652344 116.175781 193.554688 104.472656 Z M 193.554688 104.472656 "/><g style="fill:#084c3d;fill-opacity:1;"><g transform="translate(174.159367, 300.20207)"><path style="stroke:none" d="M 26.6875 0 L 19.765625 0 L 13.125 -10.796875 L 6.484375 0 L 0 0 L 9.46875 -14.734375 L 0.609375 -28.5625 L 7.28125 -28.5625 L 13.4375 -18.28125 L 19.46875 -28.5625 L 26 -28.5625 L 17.03125 -14.390625 Z M 26.6875 0 "/></g></g></g></svg>